<?xml version="1.0" encoding="UTF-8"?>
<svg id="Layer_1" data-name="Layer 1" xmlns="http://www.w3.org/2000/svg" width="50" viewBox="0 0 737.52 517.88">
  <path d="m718.83,517.85c-32.15.05-64.29.03-96.44.03-2.66,0-5.33,0-8.44,0v-231.97c-2.25,2-3.58,3.02-4.7,4.22-7.67,8.2-15.14,16.58-22.98,24.63-42.2,43.34-90.12,80-143.39,110.41-33.69,19.23-68.79,35.72-105.8,48.3-19.44,6.61-39.19,12.45-59.02,17.93-19.79,5.47-40.16,8.65-60.46,12.01-19.56,3.24-39.24,4.77-59.02,6.06-23.54,1.53-46.98.94-70.49-.18-11.7-.55-23.26-1.95-34.84-3.33-10.66-1.27-21.32-2.48-31.93-4.07-6.09-.91-12.06-2.56-18.1-3.79-2.23-.45-3.21-1.66-3.18-3.75.02-1.2-.03-2.39-.03-3.59C0,454.66,0,418.55,0,382.45c0-1.93,0-3.86,0-6.37,5.31,1.25,9.77,2.26,14.2,3.35,21.1,5.23,42.62,8.03,64.28,10.19,20.31,2.02,40.65,2.67,61.03,2.05,10.27-.31,20.51-1.57,30.78-1.89,18.23-.58,35.95-4.35,53.68-7.66,23.28-4.34,45.91-10.93,68.3-18.66,21.91-7.56,43.13-16.34,63.69-26.57,55.47-27.61,103.57-64.22,145.7-108.11,29.87-31.12,55.2-65.24,76.43-102.16,1.38-2.4,2.43-4.97,3.71-7.43H232.4s0-118.91,0-118.91c1.43-.1,2.82-.27,4.21-.27,159.69,0,319.38,0,479.07.05,7.2,0,14.4.36,21.61.53.03,1.76.23,3.53.23,5.29,0,168.13-.03,336.25-.05,504.38,0,2.35-.14,4.71-.17,7.06-6.16.17-12.31.52-18.47.53Z" style="fill: #fe0053;">
            <animate id="n1" attributeName="opacity" from="0.5" to="1"
                             begin="0;n2.end" dur="0.4s"/>
                    <animate id="n2" attributeName="opacity" from="1" to="0.5"
                             begin="n1.end" dur="0.4s"/>
  </path>
</svg>